<svg width="219" height="436" viewBox="0 0 219 436" fill="none" xmlns="http://www.w3.org/2000/svg">
<g filter="url(#filter0_d_0_603)">
<path fill-rule="evenodd" clip-rule="evenodd" d="M204.442 401.894C204.442 412.481 196.627 421.602 186.044 421.602H35.1257C24.5425 421.602 15.3401 412.481 15.3401 401.894V30.0593C15.3401 19.4722 24.5425 11.7322 35.1257 11.7322H52.5734C56.2619 11.7322 57.6244 11.3102 57.8477 15.9875C57.9642 18.4168 58.8553 20.3054 60.2826 21.8681C61.7088 23.4016 63.6723 24.6621 65.9291 25.369C67.46 25.8482 69.1645 26.2831 70.7903 26.2831H74.085H147.245H150.541C152.167 26.2831 153.871 25.7489 155.402 25.2697C157.66 24.5629 159.621 23.3833 161.049 21.8778C162.477 20.3432 163.368 18.5344 163.483 16.1051C163.706 11.4289 165.07 11.7322 168.759 11.7322H186.044C196.627 11.7322 204.442 19.4722 204.442 30.0593V401.894ZM98.8471 13.5506H122.484C123.488 13.5506 124.303 14.1733 124.303 15.0658C124.303 15.9594 123.488 16.5821 122.484 16.5821H98.8471C97.8417 16.5821 97.0293 15.9594 97.0293 15.0658C97.0293 14.1733 97.8417 13.5506 98.8471 13.5506V13.5506ZM134.91 14.073C134.91 15.5374 133.722 16.7256 132.258 16.7256C130.793 16.7256 129.606 15.5374 129.606 14.073C129.606 12.6085 130.793 11.4203 132.258 11.4203C133.722 11.4203 134.91 12.6085 134.91 14.073V14.073ZM215.958 99.0412V31.2539C215.958 14.1096 202.065 0.211609 184.926 0.211609H34.1483C16.4707 0.211609 2.00596 14.6816 2.00596 32.3666V57.2057C1.00158 57.2057 0.187073 58.0194 0.187073 59.0241V71.7566C0.187073 72.7614 1.00158 73.5762 2.00596 73.5762V88.7336C1.00158 88.7336 0.187073 89.5484 0.187073 90.5532V117.838C0.187073 118.841 1.00158 119.656 2.00596 119.656V128.751C1.00158 128.751 0.187073 129.565 0.187073 130.569V157.854C0.187073 158.858 1.00158 159.673 2.00596 159.673V403.291C2.00596 421.031 16.515 435.548 34.2486 435.548H184.926C201.993 435.548 215.958 421.578 215.958 404.504V149.366H216.563C217.569 149.366 218.382 148.551 218.382 147.546V100.861C218.382 99.856 217.569 99.0412 216.563 99.0412H215.958Z" fill="#1D1D25"/>
</g>
<defs>
<filter id="filter0_d_0_603" x="-39.8129" y="-19.7884" width="298.195" height="515.336" filterUnits="userSpaceOnUse" color-interpolation-filters="sRGB">
<feFlood flood-opacity="0" result="BackgroundImageFix"/>
<feColorMatrix in="SourceAlpha" type="matrix" values="0 0 0 0 0 0 0 0 0 0 0 0 0 0 0 0 0 0 127 0" result="hardAlpha"/>
<feOffset dy="20"/>
<feGaussianBlur stdDeviation="20"/>
<feColorMatrix type="matrix" values="0 0 0 0 0.421822 0 0 0 0 0.554338 0 0 0 0 0.89371 0 0 0 0.243444 0"/>
<feBlend mode="normal" in2="BackgroundImageFix" result="effect1_dropShadow_0_603"/>
<feBlend mode="normal" in="SourceGraphic" in2="effect1_dropShadow_0_603" result="shape"/>
</filter>
</defs>
</svg>
